<?xml version="1.0" encoding="UTF-8"?>
<svg id="Layer_1" xmlns="http://www.w3.org/2000/svg" version="1.1" viewBox="0 0 283.5 141.7">
  <!-- Generator: Adobe Illustrator 30.0.0, SVG Export Plug-In . SVG Version: 2.1.1 Build 123)  -->
  <defs>
    <style>
      .st0 {
        fill: #231f20;
      }
    </style>
  </defs>
  <path class="st0" d="M90.8,77.3c-5.1,0-8-2.7-8-5.7s4.1-8.1,11.9-8.5c7.6-.3,9.6,5,8.6,6.8h-.1c.4-1.5-1.2-7-8.5-6.6-7.5.4-11.2,4.7-11.2,8.3s2.5,5.5,7.4,5.5,9.4-2.3,12.7-5.1c1.4-1.2,4.2-4.2,7.2-7.3-.3-.5-.7-.9-1.1-1.3-2.8-2.5-6.9-2.6-10.5-2.2-.7,0-1.9.3-3.2.4-2.3.3-5.4.9-7.9.8-2.1,0-3.8-.5-4.4-1.8h0c.5,1.1,2.3,1.4,4.5,1.4,2.4,0,5.4-.3,7.6-.6,1.3-.2,2.4-.4,3.2-.4,4-.5,8.1,0,10.6,2.2.4.4.8.8,1.1,1.3,3.8-4,7.7-7.9,8.9-7.9s.3,0,.3,0h0c-2.1,2.2-5,6-8.2,10.3.7,3.3-.3,7.4-3,9.6-.6.5-1.4.9-2,.6-.9-.4-.3-2.9.6-4.5.8-1.5,1.6-2.9,3.1-4.9.3-.5.7-.9,1-1.4-.2-.6-.4-1.1-.7-1.6-2.9,3-5.7,6.1-7.1,7.2-3.3,2.8-7.4,5.2-12.9,5.2h0ZM108.6,76.5c2.6-2.2,3.7-6.1,3-9.3-.2.2-.4.5-.6.8-1.5,2-2.5,3.6-3.3,5.3-.6,1.3-1.7,3.5-1,3.9.6.3,1.2-.1,1.8-.6ZM111.6,66.3c3-3.9,6.1-7.4,8.1-9.5,0,0-.1,0-.1,0-1.3.2-5,4.1-8.6,7.9.3.5.5,1,.7,1.6Z"/>
  <path class="st0" d="M106.7,80c1.4-1.6,6.8-8.6,7.4-9.4.3-.3.4-.6.4-.7s0,0,0,0c-.1,0-.5.1-.9.7-.2.2-.7.8-1.1,1.2h-.1c.4-.5.9-1.1,1.1-1.3.6-.6,1-.7,1.2-.7s.3,0,.3.2c0,.3-.4,1-.9,1.6l-.2.3c1-1.1,2.5-2.2,3.3-2.2s.5.2.5.5-.3,1-1.2,2c-.6.7-1.7,1.8-1.7,2.1s.2.2.3.2c.7,0,2.2-1.4,3.5-2.8h.1c-1.3,1.5-2.8,3-3.7,3s-.5-.2-.5-.6c0-.5.3-1.3,1.4-2.3.8-.8,1.2-1.3,1.4-1.6,0-.2,0-.3-.2-.3-1,0-3.2,2.2-4,3.3l-5.3,6.9h-.9s0,0,0,0Z"/>
  <path class="st0" d="M117,74.6c1-1.3,2.3-2.8,3.2-3.9.3-.3.4-.6.4-.7s0,0,0,0c-.1,0-.5.1-.9.7-.2.2-.8.8-1.1,1.2h-.1c.4-.5.9-1.1,1.1-1.3.6-.6,1-.7,1.2-.7s.3,0,.3.2c0,.5-1.1,2-1.3,2.2.4-.3.7-.6,1.2-.9.2-.4.5-.7.7-1,.5-.6,1.4-1,1.6-.9.3.1-.8,1-2.2,2.1-.3.5-.5,1,0,1,.7,0,2.5-1.7,3-2.2.6-.5.9-.5,1.1-.5.5,0,.7.6-1.1,2.5-.7.7-1.6,1.7-1.6,2s.2.2.3.2c.7,0,2.2-1.4,3.5-2.8h.1c-1.3,1.5-2.8,2.9-3.6,2.9s-.4-.2-.4-.5c0-.4.4-1.2,1.4-2.3,1.1-1.2,1.5-1.9,1.3-1.9s-.4,0-.7.4c-.6.6-2.4,2.3-3.1,2.3-.5,0-.5-.5-.2-1-.6.4-1,.8-1.3,1l-1.5,2h-.9,0ZM126.1,67.6c.3-.3.6-.4.8-.4.1,0,0,.4-.3.7-.3.3-.6.4-.8.4-.1,0,0-.4.3-.7Z"/>
  <path class="st0" d="M125.6,74.6c-.7,0-.7-.9-.2-2,.2-.5.5-.8.8-1.2.6-.8,1.3-1.8,1.9-2.7,5.2-7.2,8.3-11.2,10.1-11.1.8,0,.7.8,0,1.9-1.1,1.7-4.4,4.9-7.6,6.8-.6.8-1.2,1.6-1.8,2.5-.5.8-1.4,2-2.2,3.1-.2.2-.5.7-.5.8-.6.9-.9,1.8-.5,1.8s2.2-1.6,3.3-2.8h.1c-1.2,1.3-2.8,3-3.5,3h0ZM138.1,59.4c.6-1,.7-1.6.1-1.7-1.4,0-3.9,3.4-7.3,8.2,3.1-1.9,6.2-5,7.2-6.5Z"/>
  <path class="st0" d="M133.5,74.6c1.9-2.4,4.9-6.2,7-8.6-2,1.7-4.7,3.9-7.2,5.5v-.2c3-1.9,6.4-4.8,8.3-6.6h.1c-1.9,2-5.2,6.9-7.5,9.8h-.7Z"/>
  <path class="st0" d="M148.2,65.6c-1.4.4-2.6-.3-4.1-.2-.7,0-1.5.4-1.9.8h-.1c.3-.6.8-1.3,2-1.3s2.1.4,3.4.4,1.9-.4,2.1-.6v.2c-.2.2-.4.3-.6.4-3.3,2.1-6.3,6.6-8.3,9.3h-.7c1.9-2.5,5.2-6.8,8.4-9Z"/>
  <path class="st0" d="M145.6,74.6s0,0-.1,0c-.1,0,0-.4.1-.7.2-.3.5-.4.7-.4.1,0,0,.4-.1.7-.5.6-1,1.2-1.9,1.9h-.1c.7-.7,1-.9,1.5-1.5Z"/>
  <path class="st0" d="M154.2,72.6c2-.7,4.1-1.6,6.3-4.3.8-1,1.8-3.5-.5-3.5s-3.9,1.3-5.1,2.7c-1.3,1.5-1.8,3-.3,3s3.9-1.9,4.7-3.8h.2c-.6,1.5-2.2,4.1-4.9,4.1s-1.3-1.7.2-3.3c1.3-1.4,3.4-2.8,5.3-2.8s1.5,3.2.4,4.6c-1.9,2.4-4.2,2.9-6.2,3.7-.3,0-.8.3-1.1.4.2,0,.6,0,.7.1.4,0,.8.4,1.1.6.4.3.8.5,1.5.5s1.4-.6,1.7-1h.1c-.5.9-1.7,1.5-2.6,1.5-1,0-1.2-.4-1.7-.7-.3-.2-.7-.4-1.1-.4s-.7,0-1.2.3c-.3.2-.4.4-.7.7h-.2c.8-1.2,2.1-1.6,3.5-2.1Z"/>
  <path class="st0" d="M162.5,68.1c2.2-2.4,5.3-4,6.9-3.3,1,.4,1,1.6.4,3-.7,1.9-2.5,4.1-4.1,5.3-1.6,1.2-3.4,1.8-4.6,1.4-2-.7-.8-4.1,1.3-6.4ZM165.7,72.8c1.5-1.1,3-3.2,3.7-5,.6-1.3.6-2.5-.2-2.8-1.5-.6-4.1,1.1-6.3,3.4-1.9,2-3.4,5.2-1.7,5.9,1,.4,2.8-.3,4.4-1.5Z"/>
  <path class="st0" d="M171.4,72.6c2-.7,4.1-1.6,6.3-4.3.8-1,1.8-3.5-.5-3.5s-3.9,1.3-5.1,2.7c-1.3,1.5-1.8,3-.3,3s3.9-1.9,4.7-3.8h.2c-.6,1.5-2.2,4.1-4.9,4.1s-1.3-1.7.2-3.3c1.3-1.4,3.4-2.8,5.3-2.8s1.5,3.2.4,4.6c-1.9,2.4-4.2,2.9-6.2,3.7-.3,0-.8.3-1.1.4.2,0,.6,0,.7.1.4,0,.8.4,1.1.6.4.3.8.5,1.5.5s1.4-.6,1.7-1h.1c-.5.9-1.7,1.5-2.6,1.5-1,0-1.2-.4-1.7-.7-.3-.2-.7-.4-1.1-.4s-.7,0-1.2.3c-.3.2-.4.4-.7.7h-.2c.8-1.2,2.1-1.6,3.5-2.1Z"/>
  <path class="st0" d="M185.1,65.6c-1.4.4-2.6-.3-4.1-.2-.7,0-1.5.4-1.9.8h-.1c.3-.6.8-1.3,2-1.3s2.1.4,3.4.4,1.9-.4,2.1-.6v.2c-.2.2-.4.3-.6.4-3.3,2.1-6.3,6.6-8.3,9.3h-.7c1.9-2.5,5.2-6.8,8.4-9Z"/>
</svg>