<?xml version="1.0" encoding="UTF-8"?>
<svg id="Layer_1" xmlns="http://www.w3.org/2000/svg" version="1.1" viewBox="0 0 134.6 141.7">
  <!-- Generator: Adobe Illustrator 30.0.0, SVG Export Plug-In . SVG Version: 2.1.1 Build 123)  -->
  <defs>
    <style>
      .st0 {
        fill: #231f20;
      }
    </style>
  </defs>
  <path class="st0" d="M45,84.5h0c-4.2-.7-7.3-8.1-.3-17.7,6-8.2,14.7-12.6,22.1-14.1-1.7-.7-2.5-2.2-2.7-4-5.7,2.2-12.6,3.9-19.4,3.5-18.4-1.1-17.5-17.6-6.5-22v.5c-9.3,4-11,20,6.6,21,6.8.4,13.6-1.3,19.2-3.5-.1-3,1.3-6.7,3.6-9.7,4.1-5.3,11.1-9.2,14.3-7.7,4.4,2-1.7,8.9-6.2,11.9-2.3,1.6-6.3,3.8-11.2,5.8,0,2,1,3.6,3.1,4.1.6-.1,1.2-.2,1.8-.3.7,0,1.6,0,1.6.4,0,.4-1.2.5-1.8.5s-1.1,0-1.5-.1c-7.3,1.1-14.7,5.7-20.9,14.2-6.8,9.2-5.7,16-1.7,16.7.5-2.3,1.4-4.6,2.9-6.9,11.5-18.2,27.7-17,14.1-1.1-5.4,6.3-12.2,8.9-16.6,8.6-.8,3.9-.3,7.5.8,9.8l-.5.3c-1.2-2.3-1.7-6.1-.9-10.1ZM61.8,75.5c12.8-15-2.2-15.7-13.3,1.9-1.4,2.2-2.3,4.5-2.8,6.7,4.2.4,10.8-2.3,16.1-8.6ZM75.5,42.3c4-2.7,10.1-9.3,6.2-11.1-3-1.4-9.4,2.7-13.3,7.8-2.2,2.9-3.7,6.3-3.8,9,4.8-1.9,8.7-4.1,10.9-5.7Z"/>
  <path class="st0" d="M58.1,114c-.3,0-.5-.2-.8-.2-3.2,1.6-6.5,2.5-9.8,2.5s-6.4-1.1-5.5-2.7c.7-1.3,3.2-2.3,5.9-2.3,2.6,0,5.9.9,9.2,1.9,9.2-4.9,17-15.3,21.2-21.4,4.3-6,11-15.3,18.1-21.9-3-4.2-7.8-6.9-14.4-6.8-9.7.1-18,5.5-23.4,12.1-7.1,8.7-8.8,19.1-3.6,22.1,8.6,5.1,16.4-6.5,15.4-8.9l.5-.2c1.6,4-7.9,14.4-16.1,9.5-5.5-3.3-4.4-14.3,2.9-23.2,5.4-6.6,14.6-11.9,24.4-12,6.7,0,11.6,2.7,14.8,7,4.2-3.8,8.6-6.7,12.6-7.2v.5c-4.2.6-8.2,3.4-12.2,7.3,4.9,7.1,5,18,.1,26.7-8.1,14.3-19.7,19.3-28,19.5-3.3,0-7.4-1.2-11.3-2.5ZM42.4,113.7c-.6,1.2,1.4,2,5.1,2s6.1-.9,9-2.3c-3.1-1-6.1-1.8-8.5-1.8-2.6,0-4.9.9-5.5,2.1h0ZM58.3,113.5c3.9,1.2,7.9,2.5,11.1,2.4,8.2-.2,19.3-5.2,27.2-19.3,4.8-8.5,4.9-19.1.3-26-5.8,5.9-11.3,14.3-16.6,21.8-4.2,5.9-12.7,16.1-22.3,21h.3Z"/>
</svg>